<svg width="248" height="99" viewBox="0 0 248 99" fill="none" xmlns="http://www.w3.org/2000/svg">
<path d="M25.965 67.725C25.965 68.505 25.92 69.33 25.83 70.2H6.12C6.27 72.63 7.095 74.535 8.595 75.915C10.125 77.265 11.97 77.94 14.13 77.94C15.9 77.94 17.37 77.535 18.54 76.725C19.74 75.885 20.58 74.775 21.06 73.395H25.47C24.81 75.765 23.49 77.7 21.51 79.2C19.53 80.67 17.07 81.405 14.13 81.405C11.79 81.405 9.69 80.88 7.83 79.83C6 78.78 4.56 77.295 3.51 75.375C2.46 73.425 1.935 71.175 1.935 68.625C1.935 66.075 2.445 63.84 3.465 61.92C4.485 60 5.91 58.53 7.74 57.51C9.6 56.46 11.73 55.935 14.13 55.935C16.47 55.935 18.54 56.445 20.34 57.465C22.14 58.485 23.52 59.895 24.48 61.695C25.47 63.465 25.965 65.475 25.965 67.725ZM21.735 66.87C21.735 65.31 21.39 63.975 20.7 62.865C20.01 61.725 19.065 60.87 17.865 60.3C16.695 59.7 15.39 59.4 13.95 59.4C11.88 59.4 10.11 60.06 8.64 61.38C7.2 62.7 6.375 64.53 6.165 66.87H21.735ZM40.1003 81.405C38.2103 81.405 36.5153 81.09 35.0153 80.46C33.5153 79.8 32.3303 78.9 31.4603 77.76C30.5903 76.59 30.1103 75.255 30.0203 73.755H34.2503C34.3703 74.985 34.9403 75.99 35.9603 76.77C37.0103 77.55 38.3753 77.94 40.0553 77.94C41.6153 77.94 42.8453 77.595 43.7453 76.905C44.6453 76.215 45.0953 75.345 45.0953 74.295C45.0953 73.215 44.6153 72.42 43.6553 71.91C42.6953 71.37 41.2103 70.845 39.2003 70.335C37.3703 69.855 35.8703 69.375 34.7003 68.895C33.5603 68.385 32.5703 67.65 31.7303 66.69C30.9203 65.7 30.5153 64.41 30.5153 62.82C30.5153 61.56 30.8903 60.405 31.6403 59.355C32.3903 58.305 33.4553 57.48 34.8353 56.88C36.2153 56.25 37.7903 55.935 39.5603 55.935C42.2903 55.935 44.4953 56.625 46.1753 58.005C47.8553 59.385 48.7553 61.275 48.8753 63.675H44.7803C44.6903 62.385 44.1653 61.35 43.2053 60.57C42.2753 59.79 41.0153 59.4 39.4253 59.4C37.9553 59.4 36.7853 59.715 35.9153 60.345C35.0453 60.975 34.6103 61.8 34.6103 62.82C34.6103 63.63 34.8653 64.305 35.3753 64.845C35.9153 65.355 36.5753 65.775 37.3553 66.105C38.1653 66.405 39.2753 66.75 40.6853 67.14C42.4553 67.62 43.8953 68.1 45.0053 68.58C46.1153 69.03 47.0603 69.72 47.8403 70.65C48.6503 71.58 49.0703 72.795 49.1003 74.295C49.1003 75.645 48.7253 76.86 47.9753 77.94C47.2253 79.02 46.1603 79.875 44.7803 80.505C43.4303 81.105 41.8703 81.405 40.1003 81.405ZM88.0552 77.22L95.7052 56.34H100.07L90.3952 81H85.6252L75.9502 56.34H80.3602L88.0552 77.22ZM126.6 67.725C126.6 68.505 126.555 69.33 126.465 70.2H106.755C106.905 72.63 107.73 74.535 109.23 75.915C110.76 77.265 112.605 77.94 114.765 77.94C116.535 77.94 118.005 77.535 119.175 76.725C120.375 75.885 121.215 74.775 121.695 73.395H126.105C125.445 75.765 124.125 77.7 122.145 79.2C120.165 80.67 117.705 81.405 114.765 81.405C112.425 81.405 110.325 80.88 108.465 79.83C106.635 78.78 105.195 77.295 104.145 75.375C103.095 73.425 102.57 71.175 102.57 68.625C102.57 66.075 103.08 63.84 104.1 61.92C105.12 60 106.545 58.53 108.375 57.51C110.235 56.46 112.365 55.935 114.765 55.935C117.105 55.935 119.175 56.445 120.975 57.465C122.775 58.485 124.155 59.895 125.115 61.695C126.105 63.465 126.6 65.475 126.6 67.725ZM122.37 66.87C122.37 65.31 122.025 63.975 121.335 62.865C120.645 61.725 119.7 60.87 118.5 60.3C117.33 59.7 116.025 59.4 114.585 59.4C112.515 59.4 110.745 60.06 109.275 61.38C107.835 62.7 107.01 64.53 106.8 66.87H122.37ZM144.02 55.89C147.02 55.89 149.45 56.805 151.31 58.635C153.17 60.435 154.1 63.045 154.1 66.465V81H150.05V67.05C150.05 64.59 149.435 62.715 148.205 61.425C146.975 60.105 145.295 59.445 143.165 59.445C141.005 59.445 139.28 60.12 137.99 61.47C136.73 62.82 136.1 64.785 136.1 67.365V81H132.005V56.34H136.1V59.85C136.91 58.59 138.005 57.615 139.385 56.925C140.795 56.235 142.34 55.89 144.02 55.89ZM165.784 59.715V74.25C165.784 75.45 166.039 76.305 166.549 76.815C167.059 77.295 167.944 77.535 169.204 77.535H172.219V81H168.529C166.249 81 164.539 80.475 163.399 79.425C162.259 78.375 161.689 76.65 161.689 74.25V59.715H158.494V56.34H161.689V50.13H165.784V56.34H172.219V59.715H165.784ZM199.051 56.34V81H194.956V77.355C194.176 78.615 193.081 79.605 191.671 80.325C190.291 81.015 188.761 81.36 187.081 81.36C185.161 81.36 183.436 80.97 181.906 80.19C180.376 79.38 179.161 78.18 178.261 76.59C177.391 75 176.956 73.065 176.956 70.785V56.34H181.006V70.245C181.006 72.675 181.621 74.55 182.851 75.87C184.081 77.16 185.761 77.805 187.891 77.805C190.081 77.805 191.806 77.13 193.066 75.78C194.326 74.43 194.956 72.465 194.956 69.885V56.34H199.051ZM210.06 60.345C210.78 58.935 211.8 57.84 213.12 57.06C214.47 56.28 216.105 55.89 218.025 55.89V60.12H216.945C212.355 60.12 210.06 62.61 210.06 67.59V81H205.965V56.34H210.06V60.345ZM245.252 67.725C245.252 68.505 245.207 69.33 245.117 70.2H225.407C225.557 72.63 226.382 74.535 227.882 75.915C229.412 77.265 231.257 77.94 233.417 77.94C235.187 77.94 236.657 77.535 237.827 76.725C239.027 75.885 239.867 74.775 240.347 73.395H244.757C244.097 75.765 242.777 77.7 240.797 79.2C238.817 80.67 236.357 81.405 233.417 81.405C231.077 81.405 228.977 80.88 227.117 79.83C225.287 78.78 223.847 77.295 222.797 75.375C221.747 73.425 221.222 71.175 221.222 68.625C221.222 66.075 221.732 63.84 222.752 61.92C223.772 60 225.197 58.53 227.027 57.51C228.887 56.46 231.017 55.935 233.417 55.935C235.757 55.935 237.827 56.445 239.627 57.465C241.427 58.485 242.807 59.895 243.767 61.695C244.757 63.465 245.252 65.475 245.252 67.725ZM241.022 66.87C241.022 65.31 240.677 63.975 239.987 62.865C239.297 61.725 238.352 60.87 237.152 60.3C235.982 59.7 234.677 59.4 233.237 59.4C231.167 59.4 229.397 60.06 227.927 61.38C226.487 62.7 225.662 64.53 225.452 66.87H241.022Z" fill="#484848"/>
<path d="M67.1183 3.77592C65.1698 42.4906 65.1699 42.4906 102.069 46.8698" stroke="#B366E5" stroke-width="3" stroke-linecap="round"/>
<path d="M60.7299 83.3714C65.7265 42.7037 65.7337 42.6221 102.064 46.9265" stroke="#B366E5" stroke-width="3" stroke-linecap="round"/>
<path d="M60.7299 83.3715C64.7577 43.4411 64.7435 43.6043 20.4812 39.758" stroke="#B366E5" stroke-width="3" stroke-linecap="round"/>
<path d="M67.105 3.77474C65.7341 41.6768 65.794 41.6944 20.4834 39.732" stroke="#B366E5" stroke-width="3" stroke-linecap="round"/>
<circle cx="64.1996" cy="41.83" r="0.409186" transform="rotate(5 64.1996 41.83)" fill="#EEF0A3"/>
</svg>
